<svg width="219" height="68" viewBox="0 0 219 68" fill="none" xmlns="http://www.w3.org/2000/svg">
<g filter="url(#filter0_d_27_63)">
<g clip-path="url(#clip0_27_63)">
<rect x="4" width="211" height="60" rx="16" fill="#3538CD"/>
<g clip-path="url(#clip1_27_63)">
<rect x="4" width="211" height="60" rx="16" fill="url(#paint0_radial_27_63)"/>
<rect x="4" width="211" height="60" rx="16" fill="url(#paint1_linear_27_63)"/>
<path d="M63.187 29.248L62.2744 35.2671C61.8779 35.7319 61.4062 36.1079 60.8594 36.395C60.3193 36.6821 59.7451 36.8906 59.1367 37.0205C58.5352 37.1504 57.937 37.2119 57.3423 37.2051C56.4331 37.1914 55.6777 37.0034 55.0762 36.6411C54.4814 36.2788 54.0166 35.7969 53.6816 35.1953C53.3535 34.5869 53.1382 33.9067 53.0356 33.1548C52.9399 32.4028 52.9434 31.6304 53.0459 30.8374L53.4458 28.2329C53.5688 27.3921 53.7739 26.5889 54.061 25.8232C54.3481 25.0508 54.731 24.3638 55.2095 23.7622C55.6948 23.1606 56.2861 22.689 56.9834 22.3472C57.6807 21.9985 58.5044 21.8345 59.4546 21.855C60.4663 21.8823 61.2798 22.1045 61.895 22.5215C62.5103 22.9316 62.958 23.5024 63.2383 24.2339C63.5254 24.9585 63.6724 25.7925 63.6792 26.7358H61.0645C61.0713 26.2847 61.0337 25.8677 60.9517 25.4849C60.8765 25.0952 60.7124 24.7773 60.4595 24.5312C60.2134 24.2852 59.8306 24.1519 59.311 24.1313C58.7437 24.1108 58.2686 24.2236 57.8857 24.4697C57.5029 24.709 57.1919 25.0337 56.9526 25.4438C56.7134 25.8472 56.5288 26.2949 56.3989 26.7871C56.269 27.2725 56.1733 27.7476 56.1118 28.2124L55.7324 30.8477C55.6846 31.251 55.6504 31.6851 55.6299 32.1499C55.6162 32.6147 55.6606 33.0557 55.7632 33.4727C55.8657 33.8896 56.0605 34.2314 56.3477 34.498C56.6348 34.7646 57.0518 34.9014 57.5986 34.9082C57.8652 34.9082 58.1113 34.8843 58.3369 34.8364C58.5625 34.7817 58.7778 34.7065 58.9829 34.6108C59.1948 34.5151 59.4067 34.4023 59.6187 34.2725L60.1826 31.3604H57.9575L58.3267 29.248H63.187ZM64.561 31.8628L64.6636 31.063C64.7456 30.3726 64.9097 29.7061 65.1558 29.0635C65.4019 28.4141 65.7334 27.833 66.1504 27.3203C66.5674 26.8008 67.0698 26.3975 67.6577 26.1104C68.2524 25.8164 68.936 25.6797 69.7085 25.7002C70.4604 25.7139 71.0825 25.8779 71.5747 26.1924C72.0669 26.5068 72.4497 26.9204 72.7231 27.4331C72.9966 27.9458 73.1743 28.5166 73.2563 29.1455C73.3452 29.7744 73.3555 30.4102 73.2871 31.0527L73.1948 31.8628C73.1128 32.5532 72.9453 33.2231 72.6924 33.8726C72.4463 34.5151 72.1147 35.0928 71.6978 35.6055C71.2808 36.1113 70.7783 36.5112 70.1904 36.8052C69.6025 37.0923 68.9224 37.2256 68.1499 37.2051C67.3979 37.1914 66.7759 37.0273 66.2837 36.7129C65.7915 36.3984 65.4087 35.9849 65.1353 35.4722C64.8618 34.9595 64.6807 34.3921 64.5918 33.77C64.5098 33.1411 64.4995 32.5054 64.561 31.8628ZM67.2373 31.0527L67.1553 31.8833C67.1279 32.1362 67.1074 32.4336 67.0938 32.7754C67.0801 33.1172 67.104 33.459 67.1655 33.8008C67.2271 34.1426 67.3501 34.4263 67.5347 34.6519C67.7192 34.8774 67.9961 35.0005 68.3652 35.021C68.7822 35.0483 69.1274 34.9595 69.4009 34.7544C69.6812 34.5493 69.9033 34.2827 70.0674 33.9546C70.2383 33.6196 70.3647 33.2676 70.4468 32.8984C70.5356 32.5225 70.6006 32.1738 70.6416 31.8525L70.7236 31.0322C70.7441 30.7861 70.7578 30.4888 70.7646 30.1401C70.7783 29.7915 70.7544 29.4497 70.6929 29.1147C70.6313 28.7798 70.5083 28.4961 70.3237 28.2637C70.1392 28.0312 69.8623 27.9048 69.4932 27.8843C69.0898 27.8638 68.7515 27.9595 68.478 28.1714C68.2114 28.3765 67.9927 28.6465 67.8218 28.9814C67.6509 29.3096 67.521 29.6616 67.4321 30.0376C67.3433 30.4067 67.2783 30.7451 67.2373 31.0527ZM85.397 25.9053L85.0381 27.9048H79.6343L80.0034 25.9053H85.397ZM81.8286 23.1777H84.3818L82.5771 33.7905C82.5566 33.9683 82.5464 34.1426 82.5464 34.3135C82.5532 34.4844 82.5942 34.6279 82.6694 34.7441C82.7515 34.8604 82.9019 34.9219 83.1206 34.9287C83.2437 34.9287 83.3633 34.9219 83.4795 34.9082C83.5957 34.8877 83.7085 34.8706 83.8179 34.8569L83.6128 36.9487C83.3872 37.0376 83.1548 37.0991 82.9155 37.1333C82.6831 37.1743 82.4438 37.1914 82.1978 37.1846C81.5894 37.1777 81.1177 37.0205 80.7827 36.7129C80.4478 36.3984 80.2222 36.002 80.106 35.5234C79.9897 35.0381 79.9556 34.5288 80.0034 33.9956L81.8286 23.1777ZM85.4175 31.8628L85.52 31.063C85.6021 30.3726 85.7661 29.7061 86.0122 29.0635C86.2583 28.4141 86.5898 27.833 87.0068 27.3203C87.4238 26.8008 87.9263 26.3975 88.5142 26.1104C89.1089 25.8164 89.7925 25.6797 90.5649 25.7002C91.3169 25.7139 91.939 25.8779 92.4312 26.1924C92.9233 26.5068 93.3062 26.9204 93.5796 27.4331C93.853 27.9458 94.0308 28.5166 94.1128 29.1455C94.2017 29.7744 94.2119 30.4102 94.1436 31.0527L94.0513 31.8628C93.9692 32.5532 93.8018 33.2231 93.5488 33.8726C93.3027 34.5151 92.9712 35.0928 92.5542 35.6055C92.1372 36.1113 91.6348 36.5112 91.0469 36.8052C90.459 37.0923 89.7788 37.2256 89.0063 37.2051C88.2544 37.1914 87.6323 37.0273 87.1401 36.7129C86.6479 36.3984 86.2651 35.9849 85.9917 35.4722C85.7183 34.9595 85.5371 34.3921 85.4482 33.77C85.3662 33.1411 85.356 32.5054 85.4175 31.8628ZM88.0938 31.0527L88.0117 31.8833C87.9844 32.1362 87.9639 32.4336 87.9502 32.7754C87.9365 33.1172 87.9604 33.459 88.022 33.8008C88.0835 34.1426 88.2065 34.4263 88.3911 34.6519C88.5757 34.8774 88.8525 35.0005 89.2217 35.021C89.6387 35.0483 89.9839 34.9595 90.2573 34.7544C90.5376 34.5493 90.7598 34.2827 90.9238 33.9546C91.0947 33.6196 91.2212 33.2676 91.3032 32.8984C91.3921 32.5225 91.457 32.1738 91.498 31.8525L91.5801 31.0322C91.6006 30.7861 91.6143 30.4888 91.6211 30.1401C91.6348 29.7915 91.6108 29.4497 91.5493 29.1147C91.4878 28.7798 91.3647 28.4961 91.1802 28.2637C90.9956 28.0312 90.7188 27.9048 90.3496 27.8843C89.9463 27.8638 89.6079 27.9595 89.3345 28.1714C89.0679 28.3765 88.8491 28.6465 88.6782 28.9814C88.5073 29.3096 88.3774 29.6616 88.2886 30.0376C88.1997 30.4067 88.1348 30.7451 88.0938 31.0527ZM103.772 37H101.085L101.506 34.7134L103.895 34.7339C104.736 34.7407 105.413 34.5698 105.925 34.2212C106.445 33.8657 106.838 33.3872 107.104 32.7856C107.378 32.1772 107.569 31.4902 107.679 30.7246L108.027 28.3354C108.082 27.8706 108.116 27.4126 108.13 26.9614C108.144 26.5034 108.092 26.083 107.976 25.7002C107.867 25.3105 107.658 24.9995 107.351 24.7671C107.043 24.5278 106.602 24.3979 106.028 24.3774L103.229 24.3672L103.628 22.0703L106.13 22.0806C107.026 22.1011 107.785 22.2856 108.407 22.6343C109.036 22.9829 109.535 23.4512 109.904 24.0391C110.28 24.6201 110.529 25.2832 110.652 26.0283C110.782 26.7666 110.796 27.5425 110.693 28.356L110.334 30.7246C110.198 31.6133 109.958 32.4404 109.617 33.2061C109.275 33.9717 108.831 34.6382 108.284 35.2056C107.737 35.7729 107.087 36.2173 106.335 36.5386C105.59 36.853 104.736 37.0068 103.772 37ZM105.218 22.0703L102.634 37H99.9575L102.531 22.0703H105.218ZM115.964 25.9053L114.036 37H111.462L113.39 25.9053H115.964ZM113.77 23.0649C113.776 22.6548 113.91 22.3062 114.169 22.019C114.429 21.7251 114.771 21.5747 115.195 21.5679C115.598 21.561 115.93 21.6909 116.189 21.9575C116.456 22.2241 116.586 22.5625 116.579 22.9727C116.586 23.376 116.456 23.7212 116.189 24.0083C115.93 24.2954 115.591 24.4424 115.174 24.4492C114.771 24.4629 114.436 24.3364 114.169 24.0698C113.91 23.8032 113.776 23.4683 113.77 23.0649ZM121.788 33.9854C121.836 33.6982 121.771 33.459 121.593 33.2676C121.416 33.0693 121.2 32.9019 120.947 32.7651C120.694 32.6216 120.465 32.502 120.26 32.4062C119.898 32.2285 119.553 32.0405 119.225 31.8423C118.903 31.6372 118.62 31.4048 118.374 31.145C118.127 30.8853 117.936 30.5879 117.799 30.2529C117.669 29.9111 117.618 29.5181 117.646 29.0737C117.673 28.5405 117.799 28.0654 118.025 27.6484C118.25 27.2314 118.548 26.876 118.917 26.582C119.286 26.2881 119.703 26.0659 120.168 25.9155C120.64 25.7583 121.128 25.6831 121.634 25.6899C122.325 25.7036 122.933 25.854 123.459 26.1411C123.986 26.4214 124.389 26.8213 124.669 27.3408C124.957 27.8535 125.093 28.4585 125.08 29.1558H122.526C122.533 28.9097 122.513 28.6772 122.465 28.4585C122.417 28.2329 122.314 28.0483 122.157 27.9048C122.007 27.7612 121.788 27.6929 121.501 27.6997C121.248 27.6997 121.022 27.7544 120.824 27.8638C120.633 27.9731 120.472 28.1235 120.342 28.3149C120.212 28.4995 120.124 28.7114 120.076 28.9507C120.042 29.1558 120.069 29.3369 120.158 29.4941C120.253 29.6445 120.38 29.7778 120.537 29.894C120.701 30.0034 120.875 30.1025 121.06 30.1914C121.245 30.2803 121.409 30.3555 121.552 30.417C122.065 30.6631 122.533 30.9331 122.957 31.2271C123.388 31.5142 123.723 31.8662 123.962 32.2832C124.201 32.7002 124.304 33.2231 124.27 33.8521C124.235 34.4058 124.095 34.8945 123.849 35.3184C123.61 35.7422 123.292 36.0977 122.896 36.3848C122.506 36.665 122.068 36.8735 121.583 37.0103C121.098 37.1538 120.599 37.2188 120.086 37.2051C119.375 37.1846 118.746 37.0205 118.199 36.7129C117.659 36.4053 117.239 35.9849 116.938 35.4517C116.637 34.9116 116.494 34.2896 116.507 33.5854L118.968 33.5957C118.961 33.8965 118.992 34.1699 119.061 34.416C119.129 34.6621 119.259 34.8535 119.45 34.9902C119.642 35.127 119.905 35.1987 120.24 35.2056C120.5 35.1987 120.739 35.1509 120.958 35.062C121.176 34.9731 121.357 34.8398 121.501 34.6621C121.651 34.4775 121.747 34.252 121.788 33.9854ZM129.868 35.0312C130.224 35.0381 130.511 34.9595 130.729 34.7954C130.955 34.6245 131.129 34.3989 131.252 34.1187C131.375 33.8384 131.464 33.5513 131.519 33.2573L133.918 33.2471C133.85 33.9922 133.631 34.6689 133.262 35.2773C132.893 35.8857 132.404 36.3643 131.796 36.7129C131.188 37.0615 130.494 37.229 129.714 37.2153C128.942 37.1948 128.31 37.0342 127.817 36.7334C127.332 36.4326 126.959 36.0293 126.7 35.5234C126.44 35.0176 126.272 34.457 126.197 33.8418C126.129 33.2197 126.132 32.5737 126.208 31.9038L126.32 31.0015C126.416 30.3042 126.577 29.6343 126.802 28.9917C127.028 28.3423 127.339 27.7681 127.735 27.269C128.132 26.7632 128.621 26.3701 129.202 26.0898C129.79 25.8096 130.477 25.6797 131.263 25.7002C132.097 25.7207 132.76 25.9326 133.252 26.3359C133.744 26.7324 134.093 27.252 134.298 27.8945C134.51 28.5303 134.599 29.2241 134.564 29.9761L132.155 29.9658C132.162 29.6719 132.148 29.3677 132.114 29.0532C132.08 28.7388 131.98 28.4688 131.816 28.2432C131.652 28.0176 131.386 27.8979 131.017 27.8843C130.586 27.8638 130.237 27.9526 129.971 28.1509C129.711 28.3423 129.506 28.6021 129.355 28.9302C129.212 29.2515 129.106 29.5967 129.038 29.9658C128.969 30.3281 128.915 30.6733 128.874 31.0015L128.781 31.9141C128.754 32.1807 128.723 32.4883 128.689 32.8369C128.655 33.1855 128.655 33.5273 128.689 33.8623C128.73 34.1904 128.836 34.4673 129.007 34.6929C129.178 34.9116 129.465 35.0244 129.868 35.0312ZM135.6 31.8628L135.703 31.063C135.785 30.3726 135.949 29.7061 136.195 29.0635C136.441 28.4141 136.772 27.833 137.189 27.3203C137.606 26.8008 138.109 26.3975 138.697 26.1104C139.292 25.8164 139.975 25.6797 140.748 25.7002C141.5 25.7139 142.122 25.8779 142.614 26.1924C143.106 26.5068 143.489 26.9204 143.762 27.4331C144.036 27.9458 144.213 28.5166 144.295 29.1455C144.384 29.7744 144.395 30.4102 144.326 31.0527L144.234 31.8628C144.152 32.5532 143.984 33.2231 143.731 33.8726C143.485 34.5151 143.154 35.0928 142.737 35.6055C142.32 36.1113 141.817 36.5112 141.229 36.8052C140.642 37.0923 139.961 37.2256 139.189 37.2051C138.437 37.1914 137.815 37.0273 137.323 36.7129C136.831 36.3984 136.448 35.9849 136.174 35.4722C135.901 34.9595 135.72 34.3921 135.631 33.77C135.549 33.1411 135.539 32.5054 135.6 31.8628ZM138.276 31.0527L138.194 31.8833C138.167 32.1362 138.146 32.4336 138.133 32.7754C138.119 33.1172 138.143 33.459 138.205 33.8008C138.266 34.1426 138.389 34.4263 138.574 34.6519C138.758 34.8774 139.035 35.0005 139.404 35.021C139.821 35.0483 140.167 34.9595 140.44 34.7544C140.72 34.5493 140.942 34.2827 141.106 33.9546C141.277 33.6196 141.404 33.2676 141.486 32.8984C141.575 32.5225 141.64 32.1738 141.681 31.8525L141.763 31.0322C141.783 30.7861 141.797 30.4888 141.804 30.1401C141.817 29.7915 141.793 29.4497 141.732 29.1147C141.67 28.7798 141.547 28.4961 141.363 28.2637C141.178 28.0312 140.901 27.9048 140.532 27.8843C140.129 27.8638 139.791 27.9595 139.517 28.1714C139.25 28.3765 139.032 28.6465 138.861 28.9814C138.69 29.3096 138.56 29.6616 138.471 30.0376C138.382 30.4067 138.317 30.7451 138.276 31.0527ZM149.238 28.3457L147.73 37H145.167L147.095 25.9053H149.525L149.238 28.3457ZM152.181 25.813L151.842 28.4277C151.699 28.3936 151.552 28.3696 151.401 28.356C151.251 28.3354 151.107 28.3252 150.971 28.3252C150.595 28.3184 150.273 28.3833 150.007 28.52C149.747 28.6499 149.525 28.8311 149.34 29.0635C149.163 29.2959 149.016 29.5591 148.899 29.853C148.783 30.1401 148.691 30.4375 148.623 30.7451L148.12 30.6631C148.175 30.2256 148.264 29.7197 148.387 29.1455C148.51 28.5713 148.688 28.0176 148.92 27.4844C149.152 26.9512 149.463 26.5137 149.853 26.1719C150.243 25.8301 150.731 25.6626 151.319 25.6694C151.477 25.6763 151.624 25.6934 151.76 25.7207C151.897 25.748 152.037 25.7788 152.181 25.813ZM157.338 34.4878L159.635 21.25H162.209L159.471 37L157.154 37.0103L157.338 34.4878ZM152.129 31.873L152.222 31.0835C152.297 30.4819 152.423 29.8599 152.601 29.2173C152.779 28.5747 153.028 27.9834 153.35 27.4434C153.678 26.8965 154.095 26.4624 154.601 26.1411C155.113 25.8198 155.742 25.6729 156.487 25.7002C157.103 25.7207 157.595 25.9121 157.964 26.2744C158.333 26.6367 158.606 27.0913 158.784 27.6382C158.969 28.1782 159.082 28.7456 159.123 29.3403C159.164 29.9282 159.17 30.4614 159.143 30.9399L159 32.0679C158.904 32.5806 158.757 33.1377 158.559 33.7393C158.367 34.3408 158.107 34.9082 157.779 35.4414C157.458 35.9746 157.062 36.4087 156.59 36.7437C156.125 37.0786 155.575 37.2358 154.939 37.2153C154.235 37.2017 153.681 37.0205 153.278 36.6719C152.875 36.3232 152.581 35.8789 152.396 35.3389C152.211 34.792 152.105 34.2144 152.078 33.606C152.051 32.9976 152.068 32.4199 152.129 31.873ZM154.806 31.0732L154.724 31.8936C154.696 32.1533 154.669 32.4575 154.642 32.8062C154.614 33.1479 154.625 33.4863 154.672 33.8213C154.72 34.1494 154.836 34.4263 155.021 34.6519C155.206 34.8706 155.486 34.9834 155.862 34.9902C156.306 35.0039 156.675 34.8877 156.969 34.6416C157.27 34.3955 157.506 34.0879 157.677 33.7188C157.854 33.3428 157.978 32.9702 158.046 32.6011L158.364 30.417C158.377 30.1641 158.374 29.8975 158.354 29.6172C158.333 29.3369 158.278 29.0703 158.189 28.8174C158.101 28.5576 157.96 28.3457 157.769 28.1816C157.584 28.0176 157.332 27.9287 157.01 27.915C156.593 27.8877 156.248 27.9731 155.975 28.1714C155.701 28.3696 155.486 28.6328 155.329 28.9609C155.171 29.2891 155.052 29.6411 154.97 30.0171C154.895 30.3931 154.84 30.7451 154.806 31.0732Z" fill="white"/>
<mask id="mask0_27_63" style="mask-type:alpha" maskUnits="userSpaceOnUse" x="162" y="18" width="24" height="24">
<rect x="162" y="18" width="24" height="24" fill="#D9D9D9"/>
</mask>
<g mask="url(#mask0_27_63)">
<path d="M170.025 40L168.25 38.225L176.475 30L168.25 21.775L170.025 20L180.025 30L170.025 40Z" fill="#F2F4F7"/>
</g>
</g>
</g>
</g>
<defs>
<filter id="filter0_d_27_63" x="0" y="0" width="219" height="68" filterUnits="userSpaceOnUse" color-interpolation-filters="sRGB">
<feFlood flood-opacity="0" result="BackgroundImageFix"/>
<feColorMatrix in="SourceAlpha" type="matrix" values="0 0 0 0 0 0 0 0 0 0 0 0 0 0 0 0 0 0 127 0" result="hardAlpha"/>
<feOffset dy="4"/>
<feGaussianBlur stdDeviation="2"/>
<feComposite in2="hardAlpha" operator="out"/>
<feColorMatrix type="matrix" values="0 0 0 0 0 0 0 0 0 0 0 0 0 0 0 0 0 0 0.25 0"/>
<feBlend mode="normal" in2="BackgroundImageFix" result="effect1_dropShadow_27_63"/>
<feBlend mode="normal" in="SourceGraphic" in2="effect1_dropShadow_27_63" result="shape"/>
</filter>
<radialGradient id="paint0_radial_27_63" cx="0" cy="0" r="1" gradientUnits="userSpaceOnUse" gradientTransform="translate(109.5 30) rotate(90) scale(30 105.5)">
<stop stop-color="white" stop-opacity="0"/>
<stop offset="1" stop-color="#1E1E1E" stop-opacity="0.15"/>
</radialGradient>
<linearGradient id="paint1_linear_27_63" x1="109.5" y1="0" x2="109.5" y2="60" gradientUnits="userSpaceOnUse">
<stop stop-color="white" stop-opacity="0.2"/>
<stop offset="1" stop-color="white" stop-opacity="0"/>
</linearGradient>
<clipPath id="clip0_27_63">
<rect x="4" width="211" height="60" rx="16" fill="white"/>
</clipPath>
<clipPath id="clip1_27_63">
<rect x="4" width="211" height="60" rx="16" fill="white"/>
</clipPath>
</defs>
</svg>
