<svg width="169" height="68" viewBox="0 0 169 68" fill="none" xmlns="http://www.w3.org/2000/svg">
<g filter="url(#filter0_d_27_36)">
<g clip-path="url(#clip0_27_36)">
<rect x="4" width="161" height="60" rx="16" fill="#5925DC"/>
<g clip-path="url(#clip1_27_36)">
<rect x="4" width="161" height="60" rx="16" fill="url(#paint0_radial_27_36)"/>
<rect x="4" width="161" height="60" rx="16" fill="url(#paint1_linear_27_36)"/>
<path d="M57.2388 32.124C57.2388 31.8369 57.1943 31.5806 57.1055 31.355C57.0234 31.1226 56.8696 30.9141 56.644 30.7295C56.4253 30.5381 56.1143 30.3535 55.7109 30.1758C55.3145 29.9912 54.8018 29.7998 54.1729 29.6016C53.4756 29.3828 52.8262 29.1367 52.2246 28.8633C51.623 28.5898 51.0933 28.272 50.6353 27.9097C50.1841 27.5474 49.832 27.1304 49.5791 26.6587C49.3262 26.1802 49.1997 25.6265 49.1997 24.9976C49.1997 24.3823 49.3296 23.8218 49.5894 23.3159C49.856 22.8101 50.2319 22.376 50.7173 22.0137C51.2026 21.6445 51.7734 21.3608 52.4297 21.1626C53.0928 20.9644 53.8242 20.8652 54.624 20.8652C55.7314 20.8652 56.6885 21.0669 57.4951 21.4702C58.3086 21.8735 58.9375 22.4204 59.3818 23.1108C59.8262 23.8013 60.0483 24.5771 60.0483 25.4385H57.2388C57.2388 24.9736 57.1396 24.5635 56.9414 24.208C56.75 23.8525 56.4561 23.5723 56.0596 23.3672C55.6699 23.1621 55.1777 23.0596 54.583 23.0596C54.0088 23.0596 53.5303 23.145 53.1475 23.3159C52.7715 23.4868 52.4878 23.7192 52.2964 24.0132C52.1118 24.3071 52.0195 24.6353 52.0195 24.9976C52.0195 25.271 52.0845 25.5171 52.2144 25.7358C52.3442 25.9478 52.5391 26.1494 52.7988 26.3408C53.0586 26.5254 53.3799 26.6997 53.7627 26.8638C54.1523 27.021 54.6035 27.1782 55.1162 27.3354C55.9365 27.5815 56.6543 27.855 57.2695 28.1558C57.8916 28.4565 58.4077 28.7983 58.8179 29.1812C59.2349 29.564 59.5459 29.9946 59.751 30.4731C59.9629 30.9517 60.0688 31.4951 60.0688 32.1035C60.0688 32.7461 59.9424 33.3203 59.6895 33.8262C59.4365 34.332 59.0742 34.7627 58.6025 35.1182C58.1309 35.4736 57.5635 35.7437 56.9004 35.9282C56.2441 36.1128 55.5093 36.2051 54.6958 36.2051C53.9712 36.2051 53.2534 36.1094 52.5425 35.918C51.8384 35.7197 51.1992 35.4258 50.625 35.0361C50.0508 34.6396 49.5928 34.1406 49.251 33.5391C48.9092 32.9307 48.7383 32.2197 48.7383 31.4062H51.5684C51.5684 31.8779 51.6436 32.2812 51.7939 32.6162C51.9512 32.9443 52.1699 33.2144 52.4502 33.4263C52.7373 33.6313 53.0723 33.7817 53.4551 33.8774C53.8379 33.9731 54.2515 34.021 54.6958 34.021C55.27 34.021 55.7417 33.9424 56.1108 33.7852C56.4868 33.6211 56.7671 33.3955 56.9517 33.1084C57.1431 32.8213 57.2388 32.4932 57.2388 32.124ZM64.9087 24.9053V36H62.1914V24.9053H64.9087ZM62.0068 22.0034C62.0068 21.6001 62.1436 21.2651 62.417 20.9985C62.6973 20.7319 63.0732 20.5986 63.5449 20.5986C64.0166 20.5986 64.3892 20.7319 64.6626 20.9985C64.9429 21.2651 65.083 21.6001 65.083 22.0034C65.083 22.3999 64.9429 22.7314 64.6626 22.998C64.3892 23.2646 64.0166 23.3979 63.5449 23.3979C63.0732 23.3979 62.6973 23.2646 62.417 22.998C62.1436 22.7314 62.0068 22.3999 62.0068 22.0034ZM74.5474 24.9053H77.0083V35.6616C77.0083 36.6665 76.7896 37.5176 76.3521 38.2148C75.9214 38.9189 75.3164 39.4521 74.5371 39.8145C73.7578 40.1836 72.8521 40.3682 71.8198 40.3682C71.3755 40.3682 70.8936 40.3066 70.374 40.1836C69.8613 40.0605 69.3657 39.8657 68.8872 39.5991C68.4155 39.3394 68.0225 39.001 67.708 38.584L68.9282 36.9844C69.2974 37.415 69.7144 37.7397 70.1792 37.9585C70.644 38.1841 71.1465 38.2969 71.6865 38.2969C72.2334 38.2969 72.6982 38.1943 73.0811 37.9893C73.4707 37.791 73.7681 37.4971 73.9731 37.1074C74.1851 36.7246 74.291 36.2529 74.291 35.6924V27.438L74.5474 24.9053ZM67.0518 30.5859V30.3706C67.0518 29.5229 67.1543 28.7539 67.3594 28.0635C67.5645 27.3662 67.8584 26.7681 68.2412 26.269C68.6309 25.77 69.0991 25.3838 69.646 25.1104C70.1997 24.8369 70.8218 24.7002 71.5122 24.7002C72.2437 24.7002 72.8589 24.8335 73.3579 25.1001C73.8638 25.3667 74.2808 25.7461 74.6089 26.2383C74.9438 26.7305 75.2036 27.3149 75.3882 27.9917C75.5796 28.6616 75.7266 29.3999 75.8291 30.2065V30.791C75.7334 31.5771 75.5796 32.2983 75.3677 32.9546C75.1626 33.6108 74.8892 34.1851 74.5474 34.6772C74.2056 35.1626 73.7817 35.5386 73.2759 35.8052C72.77 36.0718 72.1753 36.2051 71.4917 36.2051C70.8081 36.2051 70.1929 36.0649 69.646 35.7847C69.0991 35.5044 68.6309 35.1113 68.2412 34.6055C67.8584 34.0996 67.5645 33.5049 67.3594 32.8213C67.1543 32.1377 67.0518 31.3926 67.0518 30.5859ZM69.7588 30.3706V30.5859C69.7588 31.0645 69.8066 31.5122 69.9023 31.9292C69.998 32.3462 70.145 32.7153 70.3433 33.0366C70.5415 33.3511 70.791 33.5972 71.0918 33.7749C71.3926 33.9526 71.7515 34.0415 72.1685 34.0415C72.729 34.0415 73.187 33.9253 73.5425 33.6929C73.9048 33.4536 74.1782 33.1289 74.3628 32.7188C74.5542 32.3018 74.6772 31.8335 74.7319 31.314V29.7041C74.6978 29.2939 74.6226 28.9146 74.5063 28.5659C74.397 28.2173 74.2432 27.9165 74.0449 27.6636C73.8467 27.4106 73.5938 27.2124 73.2861 27.0688C72.9785 26.9253 72.6128 26.8535 72.189 26.8535C71.7788 26.8535 71.4199 26.9458 71.1123 27.1304C70.8047 27.3081 70.5518 27.5576 70.3535 27.8789C70.1553 28.2002 70.0049 28.5728 69.9023 28.9966C69.8066 29.4204 69.7588 29.8784 69.7588 30.3706ZM82.1045 27.2739V36H79.3975V24.9053H81.9404L82.1045 27.2739ZM81.6738 30.0527H80.874C80.8809 29.2461 80.9902 28.5146 81.2021 27.8584C81.4141 27.2021 81.7114 26.6382 82.0942 26.1665C82.4839 25.6948 82.9453 25.3325 83.4785 25.0796C84.0117 24.8267 84.6064 24.7002 85.2627 24.7002C85.7959 24.7002 86.2778 24.7754 86.7085 24.9258C87.1392 25.0762 87.5083 25.3154 87.8159 25.6436C88.1304 25.9717 88.3696 26.4023 88.5337 26.9355C88.7046 27.4619 88.79 28.1113 88.79 28.8838V36H86.0625V28.8633C86.0625 28.3574 85.9873 27.9575 85.8369 27.6636C85.6934 27.3696 85.4814 27.1611 85.2012 27.0381C84.9277 26.915 84.5894 26.8535 84.186 26.8535C83.769 26.8535 83.4033 26.939 83.0889 27.1099C82.7812 27.2739 82.5215 27.5029 82.3096 27.7969C82.1045 28.0908 81.9473 28.4292 81.8379 28.812C81.7285 29.1948 81.6738 29.6084 81.6738 30.0527ZM103.012 33.3647V24.9053H105.74V36H103.176L103.012 33.3647ZM103.361 31.0679L104.202 31.0474C104.202 31.7925 104.12 32.4795 103.956 33.1084C103.792 33.7373 103.535 34.2842 103.187 34.749C102.845 35.207 102.411 35.5659 101.884 35.8257C101.358 36.0786 100.736 36.2051 100.018 36.2051C99.4712 36.2051 98.9722 36.1299 98.521 35.9795C98.0698 35.8223 97.6802 35.5796 97.3521 35.2515C97.0308 34.9165 96.7812 34.4893 96.6035 33.9697C96.4258 33.4434 96.3369 32.811 96.3369 32.0728V24.9053H99.0439V32.0933C99.0439 32.4624 99.085 32.77 99.167 33.0161C99.2559 33.2622 99.3755 33.4639 99.5259 33.6211C99.6831 33.7715 99.8643 33.8809 100.069 33.9492C100.281 34.0107 100.507 34.0415 100.746 34.0415C101.402 34.0415 101.918 33.9116 102.294 33.6519C102.677 33.3853 102.951 33.0298 103.115 32.5854C103.279 32.1343 103.361 31.6284 103.361 31.0679ZM110.846 27.0381V40.2656H108.129V24.9053H110.641L110.846 27.0381ZM117.973 30.3398V30.5552C117.973 31.3618 117.877 32.1104 117.686 32.8008C117.501 33.4844 117.228 34.0825 116.865 34.5952C116.503 35.1011 116.052 35.4976 115.512 35.7847C114.979 36.0649 114.363 36.2051 113.666 36.2051C112.982 36.2051 112.388 36.0752 111.882 35.8154C111.376 35.5488 110.949 35.1729 110.6 34.6875C110.251 34.2021 109.971 33.6382 109.759 32.9956C109.554 32.3462 109.4 31.6387 109.298 30.873V30.186C109.4 29.3726 109.554 28.6343 109.759 27.9712C109.971 27.3013 110.251 26.7236 110.6 26.2383C110.949 25.7461 111.373 25.3667 111.872 25.1001C112.377 24.8335 112.969 24.7002 113.646 24.7002C114.35 24.7002 114.968 24.8335 115.501 25.1001C116.042 25.3667 116.496 25.7495 116.865 26.2485C117.234 26.7476 117.511 27.3423 117.696 28.0327C117.88 28.7231 117.973 29.4922 117.973 30.3398ZM115.255 30.5552V30.3398C115.255 29.8477 115.211 29.3931 115.122 28.9761C115.033 28.5522 114.896 28.1831 114.712 27.8687C114.527 27.5474 114.288 27.2979 113.994 27.1201C113.7 26.9424 113.345 26.8535 112.928 26.8535C112.511 26.8535 112.152 26.9219 111.851 27.0586C111.55 27.1953 111.304 27.3901 111.113 27.6431C110.921 27.896 110.771 28.1968 110.662 28.5454C110.559 28.8872 110.491 29.2666 110.457 29.6836V31.3857C110.518 31.8916 110.638 32.3462 110.815 32.7495C110.993 33.1528 111.253 33.4741 111.595 33.7134C111.943 33.9526 112.395 34.0723 112.948 34.0723C113.365 34.0723 113.721 33.98 114.015 33.7954C114.309 33.6108 114.548 33.3579 114.732 33.0366C114.917 32.7085 115.05 32.3325 115.132 31.9087C115.214 31.4849 115.255 31.0337 115.255 30.5552Z" fill="white"/>
</g>
</g>
</g>
<defs>
<filter id="filter0_d_27_36" x="0" y="0" width="169" height="68" filterUnits="userSpaceOnUse" color-interpolation-filters="sRGB">
<feFlood flood-opacity="0" result="BackgroundImageFix"/>
<feColorMatrix in="SourceAlpha" type="matrix" values="0 0 0 0 0 0 0 0 0 0 0 0 0 0 0 0 0 0 127 0" result="hardAlpha"/>
<feOffset dy="4"/>
<feGaussianBlur stdDeviation="2"/>
<feComposite in2="hardAlpha" operator="out"/>
<feColorMatrix type="matrix" values="0 0 0 0 0 0 0 0 0 0 0 0 0 0 0 0 0 0 0.25 0"/>
<feBlend mode="normal" in2="BackgroundImageFix" result="effect1_dropShadow_27_36"/>
<feBlend mode="normal" in="SourceGraphic" in2="effect1_dropShadow_27_36" result="shape"/>
</filter>
<radialGradient id="paint0_radial_27_36" cx="0" cy="0" r="1" gradientUnits="userSpaceOnUse" gradientTransform="translate(84.5 30) rotate(90) scale(30 80.5)">
<stop stop-color="white" stop-opacity="0"/>
<stop offset="1" stop-color="#1E1E1E" stop-opacity="0.15"/>
</radialGradient>
<linearGradient id="paint1_linear_27_36" x1="84.5" y1="0" x2="84.5" y2="60" gradientUnits="userSpaceOnUse">
<stop stop-color="white" stop-opacity="0.2"/>
<stop offset="1" stop-color="white" stop-opacity="0"/>
</linearGradient>
<clipPath id="clip0_27_36">
<rect x="4" width="161" height="60" rx="16" fill="white"/>
</clipPath>
<clipPath id="clip1_27_36">
<rect x="4" width="161" height="60" rx="16" fill="white"/>
</clipPath>
</defs>
</svg>
